# xmcd
#
# Track frame offsets:
#	150
#	11880
#	22983
#	35215
#	47707
#	61328
#	71377
#	81119
#	93173
#	105170
#	118078
#	129068
#	139680
#	151471
#	164424
#	176493
#	187786
#	201223
#	213933
#	225697
#	240094
#	253468
#	266376
#	277189
#	288764
#
# Disc length: 3991 seconds
#
# Revision: 1
# Processed by: cddbd v1.5.2PL0 Copyright (c) Steve Scherf et al.
# Submitted via: audiograbber 1.83.01
#
DISCID=520f9519
DTITLE=Various Artist - Th'is Country - Country Stars CD3
DYEAR=2011
DGENRE=Country
TTITLE0=Tennessee Ernie Ford - My Hobby
TTITLE1=Johnny Cash - Cry, Cry, Cry
TTITLE2=Bing Crosby - Dear Hearts And Gentle People
TTITLE3=Eddy Arnold - I'll Hold You In My Heart
TTITLE4=Faron Young - Almost Persuaded
TTITLE5=Carl Smith and June Carter - Time's A Wastin'
TTITLE6=Curtis Gordon - Coffeine And Nicotine
TTITLE7=Bill Monroe - Rocky Top
TTITLE8=Tennessee Ernie Ford - Shot Gun Boogie
TTITLE9=George Morgan - Room Full Of Roses
TTITLE10=Hank Thompson - Humpty Dumpty Heart
TTITLE11=Eddy Arnold - Anytime
TTITLE12=Kitty Wells - Crying Steel Guitar Waltz
TTITLE13=Jim Reeves - Echo Bonita
TTITLE14=Red Foley - Hot Toddy
TTITLE15=Hank Snow - Music Makin' Mama From Memphis
TTITLE16=Kitty Wells and Red Foley - One By One
TTITLE17=Marty Robbins - I Couldn't Keep From Cryin'
TTITLE18=Carl Smith - Back Up Buddy
TTITLE19=Rex Allen - Crying In The Chapel
TTITLE20=The Osbone Brothers - Little Cabin Home On The Hill
TTITLE21=Hank Snow - The Golden Rocket
TTITLE22=Smiley Maxedon - Give Me A Red Hot Mama And A Ice Cold Beer
TTITLE23=Carl Smith - Hey Joe
TTITLE24=Pee Wee King - I Don't Mind
EXTD=
EXTT0=
EXTT1=
EXTT2=
EXTT3=
EXTT4=
EXTT5=
EXTT6=
EXTT7=
EXTT8=
EXTT9=
EXTT10=
EXTT11=
EXTT12=
EXTT13=
EXTT14=
EXTT15=
EXTT16=
EXTT17=
EXTT18=
EXTT19=
EXTT20=
EXTT21=
EXTT22=
EXTT23=
EXTT24=
PLAYORDER=
